<svg width="39" height="39" viewBox="0 0 39 39" fill="none" xmlns="http://www.w3.org/2000/svg">
<path d="M5.73519 33.0481L5.73511 33.048C-1.64499 25.6762 -1.64511 13.7187 5.73519 6.33841C11.8314 0.24218 21.0701 -0.812777 28.253 3.17461L25.4629 5.96473C19.8646 3.37339 13.0127 4.37814 8.39379 8.99701C2.48308 14.9077 2.48308 24.4872 8.39379 30.3979C14.3045 36.3086 23.884 36.3086 29.7947 30.3979C34.4135 25.7791 35.4267 18.927 32.8269 13.3283L35.609 10.531C39.596 17.7138 38.5409 26.9521 32.4449 33.0481L32.4448 33.0482C25.073 40.4283 13.1155 40.4284 5.73519 33.0481Z" fill="#22CECE" stroke="white" stroke-width="0.4"/>
</svg>
