<?xml version="1.0" encoding="UTF-8"?>
<svg width="717px" height="231px" viewBox="0 0 717 231" version="1.1" xmlns="http://www.w3.org/2000/svg" xmlns:xlink="http://www.w3.org/1999/xlink">
    <!-- Generator: Sketch 53.1 (72631) - https://sketchapp.com -->
    <title>kc_logo_white</title>
    <desc>Created with Sketch.</desc>
    <g id="Page-1" stroke="none" stroke-width="1" fill="none" fill-rule="evenodd">
        <g id="kc_logo_white">
            <g id="Group" fill="#FF3464">
                <path d="M38.58,49.74 C55.99,49.74 68.4,39.98 71.13,31.45 C78.16,26.83 94.73,29.65 104.27,32.96 C152.12,32.96 191.04,71.76 191.04,119.45 C191.04,137.24 185.67,154.32 175.51,168.85 L188.06,177.57 C200.02,160.47 206.34,140.38 206.34,119.45 C206.34,63.35 160.55,17.71 104.27,17.71 C94.7,21.02 78.16,23.88 71.16,19.22 C68.37,10.7 55.94,0.94 38.52,0.94 C21.22,0.91 5.35,9.66 5.1,25.11 L5.07,25.11 L5.07,25.5 L5.1,25.5 C5.38,40.99 21.28,49.74 38.58,49.74 M65.33,31.59 C64.74,32.52 51.74,51.72 23.58,39.58 C25.02,39.95 44.09,44.55 65.33,31.59" id="Shape"></path>
                <path d="M153.08,218.23 L201.64,217.78 L201.58,212.84 L152.74,213.29 L152.68,208.71 L201.55,208.26 L201.52,202.99 L152.65,203.46 L152.62,198.86 L201.46,198.41 L201.43,194.22 L160.07,191.09 C160.07,191.09 158.52,190.95 157.93,190.95 C151.55,191.03 145.88,193.99 142.21,198.59 C125.14,213.83 107.48,203.69 103.33,203.74 C55.34,203.74 16.3,165.13 16.3,117.67 C16.3,100.42 21.44,83.78 31.16,69.56 L18.44,61.06 C7,77.81 0.95,97.39 0.95,117.68 C0.95,173.51 46.88,218.93 103.32,218.93 C108.15,218.87 128.26,210.4 143.36,224.77 C143.39,224.77 143.44,224.79 143.44,224.82 C146.88,228.33 151.57,230.62 156.81,230.93 C157.21,230.96 158.14,230.93 158.14,230.93 L201.67,226.91 L201.67,222.34 L153.09,222.81 L153.08,218.23 Z" id="Path"></path>
                <path d="M62.58,153.39 L64.03,165.25 L98.09,165.25 L99.54,153.39 C98.09,151.77 95.42,150.2 91.54,148.67 L91.54,83.38 C95.32,81.95 97.99,80.33 99.54,78.52 L98.09,66.66 L64.03,66.66 L62.58,78.52 C63.94,80.33 66.6,81.95 70.58,83.38 L70.58,148.67 C66.5,150.2 63.83,151.77 62.58,153.39" id="Path"></path>
                <path d="M147.39,165.25 L148.83,153.39 C146.52,150.63 142.23,148.58 135.97,147.25 L113.14,113.25 L138.14,82.82 C141.8,81.3 144.3,79.77 145.65,78.25 L144.21,66.68 L111.26,66.68 L109.81,78.25 C110.87,79.58 112.75,80.87 115.45,82.11 L91.32,113.83 L123.4,165.26 L147.39,165.26 L147.39,165.25 Z" id="Path"></path>
            </g>
            <path d="M281.89,84.82 L282.84,92.69 C281.83,93.89 280.09,94.96 277.63,95.91 L277.63,139.23 C280.16,140.24 281.9,141.28 282.84,142.36 L281.89,150.23 L259.71,150.23 L258.76,142.36 C259.58,141.29 261.32,140.24 263.97,139.23 L263.97,95.91 C261.38,94.96 259.64,93.89 258.76,92.69 L259.71,84.82 L281.89,84.82 Z M314.97,150.23 L299.23,150.23 L278.19,116.11 L294.02,95.07 C292.25,94.25 291.02,93.4 290.32,92.51 L291.27,84.83 L312.88,84.83 L313.83,92.51 C312.94,93.52 311.3,94.53 308.9,95.54 L292.5,115.73 L307.48,138.29 C311.59,139.18 314.4,140.53 315.92,142.37 L314.97,150.23 Z" id="Shape" fill="#FFFFFF" fill-rule="nonzero"></path>
            <path d="M343.51,150.98 C335.93,150.98 330.22,148.96 326.4,144.91 C322.58,140.87 320.67,134.99 320.67,127.28 C320.67,122.6 321.33,118.58 322.66,115.19 C323.99,111.81 325.79,109.2 328.06,107.37 C332.48,103.83 337.63,102.06 343.51,102.06 C349.39,102.06 353.89,103.56 357.02,106.56 C360.15,109.56 361.71,114.95 361.71,122.72 C361.71,127.27 359.47,129.55 354.98,129.55 L334.41,129.55 C334.66,133.53 335.69,136.34 337.49,137.99 C339.29,139.63 342.15,140.45 346.07,140.45 C348.22,140.45 350.27,140.2 352.23,139.69 C354.19,139.19 355.61,138.68 356.5,138.17 L357.83,137.41 L360.67,144.99 C360.29,145.43 359.74,145.99 359.01,146.65 C358.28,147.31 356.45,148.2 353.51,149.3 C350.57,150.4 347.23,150.98 343.51,150.98 Z M349.48,121.12 C349.61,120.24 349.67,119.16 349.67,117.9 C349.67,116.64 349.16,115.29 348.15,113.87 C347.14,112.45 345.38,111.74 342.89,111.74 C340.39,111.74 338.48,112.5 337.15,114.01 C335.82,115.52 334.94,118.09 334.5,121.69 L349.48,121.12 Z" id="Shape" fill="#FFFFFF" fill-rule="nonzero"></path>
            <path d="M386.92,90.89 L386.92,102.83 L400.47,102.83 L400.47,110.79 L386.92,110.79 L386.92,134.77 C386.92,136.79 387.2,138.26 387.77,139.18 C388.34,140.1 389.7,140.55 391.85,140.55 C394,140.55 396.31,140.08 398.77,139.13 L401.61,146.52 C396.74,148.98 391.77,150.22 386.68,150.22 C381.59,150.22 378.15,149.13 376.35,146.95 C374.55,144.77 373.65,141.59 373.65,137.42 L373.65,110.78 L369.38,110.78 L368.34,105 C369.35,103.8 371.44,102.6 374.6,101.4 C375.36,96.22 377.16,92.71 380,90.88 L386.92,90.88 L386.92,90.89 Z" id="Path" fill="#FFFFFF" fill-rule="nonzero"></path>
            <path d="M430,150.98 C422.51,150.98 416.97,148.99 413.36,145.01 C409.76,141.03 407.96,135.01 407.96,126.95 C407.96,118.89 409.96,112.73 413.98,108.47 C417.99,104.2 423.76,102.07 431.28,102.07 C438.8,102.07 444.38,103.97 448.01,107.76 C451.64,111.55 453.46,117.48 453.46,125.53 C453.46,133.59 451.42,139.84 447.35,144.3 C443.27,148.76 437.49,150.98 430,150.98 Z M421.61,126.15 C421.61,136.26 424.64,141.32 430.71,141.32 C433.81,141.32 436.1,140.17 437.58,137.86 C439.06,135.55 439.81,131.78 439.81,126.53 C439.81,116.67 436.71,111.74 430.52,111.74 C427.49,111.74 425.24,112.83 423.79,115.01 C422.34,117.19 421.61,120.9 421.61,126.15 Z" id="Shape" fill="#FFFFFF" fill-rule="nonzero"></path>
            <path d="M521.71,96 C519.81,95.18 516.97,94.77 513.18,94.77 C509.39,94.77 506.32,96.41 503.98,99.7 C501.64,102.99 500.47,108.74 500.47,116.95 C500.47,125.17 501.59,131 503.84,134.44 C506.08,137.88 509.42,139.61 513.84,139.61 C520.6,139.61 526.67,138.6 532.04,136.58 L535.45,145.02 C528.75,149 520.88,150.99 511.85,150.99 C502.81,150.99 496.29,148.43 492.28,143.31 C488.27,138.19 486.26,129.82 486.26,118.19 C486.26,106.56 488.74,97.97 493.7,92.41 C498.66,86.85 505.63,84.07 514.6,84.07 C521.8,84.07 528.66,86.06 535.17,90.04 C535.17,90.42 535.17,91.15 535.17,92.22 C535.17,93.3 534.95,95.13 534.51,97.72 C534.07,100.31 533.43,102.43 532.61,104.07 L523.6,104.07 C522.72,102.36 522.09,99.67 521.71,96 Z" id="Path" fill="#FFFFFF" fill-rule="nonzero"></path>
            <path d="M555.84,161.22 C556.98,161.22 558.19,160.16 559.49,158.04 C560.78,155.92 561.69,153.41 562.19,150.5 L546.64,113.72 C543.54,112.71 541.46,111.51 540.38,110.12 L541.33,102.82 L563.13,102.82 L564.08,110.12 C563.26,111.13 561.87,112.05 559.91,112.87 L565.12,127.18 C566.26,130.15 567.05,133.09 567.49,136 L567.77,137.33 L569.1,137.33 C569.6,134.17 570.49,130.85 571.75,127.38 L576.77,113.35 C574.43,112.47 572.79,111.39 571.84,110.13 L572.79,102.83 L593.64,102.83 L594.59,110.13 C593.45,111.58 591.37,112.82 588.33,113.83 L572.69,150.8 C569.72,157.81 567.44,162.33 565.86,164.36 C563.08,168.09 559.21,169.95 554.25,169.95 C549.29,169.95 545.51,168.65 542.92,166.06 C542.86,165.43 542.83,164.8 542.83,164.16 C542.83,160.68 543.56,157.4 545.01,154.3 L552.88,154.3 C553.83,156.01 554.36,158.31 554.49,161.22 L555.84,161.22 Z" id="Path" fill="#FFFFFF" fill-rule="nonzero"></path>
            <path d="M622.28,111.74 C616.47,111.74 613.56,116.73 613.56,126.72 C613.56,131.78 614.37,135.3 615.98,137.29 C617.59,139.28 619.91,140.28 622.95,140.28 C627.75,140.28 631.99,139.84 635.65,138.95 L638.49,146.25 C636.47,147.58 633.75,148.7 630.34,149.62 C626.93,150.54 623.61,150.99 620.39,150.99 C606.74,150.99 599.92,143.09 599.92,127.29 C599.92,118.06 602.29,111.43 607.03,107.38 C611.26,103.84 616.41,102.07 622.48,102.07 C628.55,102.07 633.6,103.21 637.65,105.48 C637.71,106.11 637.74,106.71 637.74,107.28 C637.74,110.88 636.92,114.29 635.28,117.52 L626.94,117.52 C626.05,115.94 625.52,114.05 625.33,111.83 C624.56,111.77 623.55,111.74 622.28,111.74 Z" id="Path" fill="#FFFFFF" fill-rule="nonzero"></path>
            <path d="M645.6,82.92 C649.14,82.1 652.42,81.69 655.46,81.69 C658.49,81.69 661.05,81.79 663.14,81.97 L663.14,139.7 C665.6,140.65 667.34,141.72 668.35,142.92 L667.4,150.22 L645.6,150.22 L644.65,142.92 C645.53,141.72 647.27,140.65 649.86,139.7 L649.86,93.44 C647.65,92.68 645.91,91.61 644.65,90.22 L645.6,82.92 Z" id="Path" fill="#FFFFFF" fill-rule="nonzero"></path>
            <path d="M698.12,150.98 C690.54,150.98 684.83,148.96 681.01,144.91 C677.19,140.87 675.28,134.99 675.28,127.28 C675.28,122.6 675.94,118.58 677.27,115.19 C678.6,111.81 680.4,109.2 682.67,107.37 C687.09,103.83 692.24,102.06 698.12,102.06 C704,102.06 708.5,103.56 711.63,106.56 C714.76,109.56 716.32,114.95 716.32,122.72 C716.32,127.27 714.08,129.55 709.59,129.55 L689.02,129.55 C689.27,133.53 690.3,136.34 692.1,137.99 C693.9,139.63 696.76,140.45 700.68,140.45 C702.83,140.45 704.88,140.2 706.84,139.69 C708.8,139.19 710.22,138.68 711.11,138.17 L712.44,137.41 L715.28,144.99 C714.9,145.43 714.35,145.99 713.62,146.65 C712.89,147.31 711.06,148.2 708.12,149.3 C705.18,150.4 701.84,150.98 698.12,150.98 Z M704.09,121.12 C704.22,120.24 704.28,119.16 704.28,117.9 C704.28,116.64 703.77,115.29 702.76,113.87 C701.75,112.45 699.99,111.74 697.5,111.74 C695,111.74 693.09,112.5 691.76,114.01 C690.43,115.52 689.55,118.09 689.11,121.69 L704.09,121.12 Z" id="Shape" fill="#FFFFFF" fill-rule="nonzero"></path>
        </g>
    </g>
</svg>